<svg xmlns="http://www.w3.org/2000/svg" xmlns:xlink="http://www.w3.org/1999/xlink" viewBox="0 0 177.03 29.39"><defs><style>.cls-1,.cls-2{fill:#fff;}.cls-2,.cls-3{fill-rule:evenodd;}.cls-3{fill:url(#Dégradé_sans_nom_6);}.cls-4{fill:#561fff;}.cls-5{fill:#4b44e0;}.cls-6{fill:#b6b6ef;}.cls-7{fill:#8f8fe5;}.cls-8{fill:#5f50ef;}.cls-9{fill:#1f12a0;}.cls-10{fill:#2e15bc;}.cls-11{fill:#aeaaf2;}</style><linearGradient id="Dégradé_sans_nom_6" x1="14.66" y1="28.85" x2="14.66" y2="0.54" gradientUnits="userSpaceOnUse"><stop offset="0" stop-color="#280fba"/><stop offset="1" stop-color="#561fff"/></linearGradient></defs><g id="Calque_2" data-name="Calque 2"><g id="branco"><path class="cls-1" d="M34,19.56V4.69h4.12l6,9.71H41.85l5.77-9.71h4.12l0,14.87H47.22l0-8h.72L44,18.22H41.74l-4.12-6.65h.9v8Z"/><path class="cls-1" d="M60.47,19.77a8.1,8.1,0,0,1-3.7-.79,6,6,0,0,1-2.46-2.15,5.63,5.63,0,0,1-.87-3.09,5.71,5.71,0,0,1,.86-3.12A5.84,5.84,0,0,1,56.66,8.5,7.29,7.29,0,0,1,60,7.73a7.47,7.47,0,0,1,3.18.68,5.5,5.5,0,0,1,2.33,2,5.85,5.85,0,0,1,.88,3.31,5.53,5.53,0,0,1,0,.56c0,.21,0,.39,0,.56H57.41V12.55H63.8l-1.8.62A2.43,2.43,0,0,0,61.75,12a1.76,1.76,0,0,0-.66-.74,2.08,2.08,0,0,0-2.05,0,1.66,1.66,0,0,0-.67.74,2.55,2.55,0,0,0-.24,1.16v.72a2.54,2.54,0,0,0,.3,1.27,1.88,1.88,0,0,0,.85.8,3.05,3.05,0,0,0,1.34.26A3.6,3.6,0,0,0,62,16,4.88,4.88,0,0,0,63,15.37l2.5,2.53a5.44,5.44,0,0,1-2.09,1.39A8.27,8.27,0,0,1,60.47,19.77Z"/><path class="cls-1" d="M72.76,19.77a5.49,5.49,0,0,1-2.49-.56,4,4,0,0,1-1.75-1.77,6.5,6.5,0,0,1-.64-3.09V7.94h4.8v5.59a2.77,2.77,0,0,0,.4,1.72,1.38,1.38,0,0,0,1.11.48,1.5,1.5,0,0,0,.79-.22,1.59,1.59,0,0,0,.61-.74,3.49,3.49,0,0,0,.23-1.37V7.94h4.8V19.56H76.05V16.2l.92.92a4.23,4.23,0,0,1-1.76,2A4.85,4.85,0,0,1,72.76,19.77Z"/><path class="cls-1" d="M82.89,19.56V4.69H90a8.79,8.79,0,0,1,3.6.68,5.34,5.34,0,0,1,2.35,2,5.31,5.31,0,0,1,.83,3,5.22,5.22,0,0,1-.83,3,5.25,5.25,0,0,1-2.35,1.9,9,9,0,0,1-3.6.66H85.67l2.23-2.06v5.8Zm5-5.25L85.67,12h4.06a2.17,2.17,0,0,0,1.54-.47,1.65,1.65,0,0,0,.49-1.27A1.65,1.65,0,0,0,91.27,9a2.17,2.17,0,0,0-1.54-.47H85.67L87.9,6.29Zm3.89,5.25-3.66-5.42h5.31l3.7,5.42Z"/><path class="cls-1" d="M102.19,19.77a5.15,5.15,0,0,1-2.38-.49,3.38,3.38,0,0,1-1.93-3.12,3.16,3.16,0,0,1,.57-1.91,3.52,3.52,0,0,1,1.75-1.19,9.36,9.36,0,0,1,3-.4h2.42V15H104a2,2,0,0,0-1.11.24.84.84,0,0,0-.35.74.86.86,0,0,0,.3.67,1.3,1.3,0,0,0,.84.26,1.72,1.72,0,0,0,.91-.26,1.58,1.58,0,0,0,.6-.84l.62,1.42a3.08,3.08,0,0,1-1.17,1.93A4,4,0,0,1,102.19,19.77Zm3.29-.21V17.5l-.34-.55V13a1.61,1.61,0,0,0-.52-1.3,2.63,2.63,0,0,0-1.69-.44,5.58,5.58,0,0,0-1.59.24,4.44,4.44,0,0,0-1.38.67L98.43,9.05a8.09,8.09,0,0,1,2.44-1,11.8,11.8,0,0,1,2.78-.34,7.17,7.17,0,0,1,4.64,1.34,5.14,5.14,0,0,1,1.65,4.24v6.25Z"/><path class="cls-1" d="M116.56,19.77a13.77,13.77,0,0,1-2.93-.32,8.25,8.25,0,0,1-2.33-.83l1.31-3.16a7.54,7.54,0,0,0,1.92.76,8.51,8.51,0,0,0,2.14.28,3.1,3.1,0,0,0,1.18-.15.45.45,0,0,0,.3-.4c0-.17-.12-.3-.36-.37a4.59,4.59,0,0,0-1-.18l-1.31-.16A12.5,12.5,0,0,1,114.1,15a4.88,4.88,0,0,1-1.32-.57,2.94,2.94,0,0,1-1-1,3.39,3.39,0,0,1-.36-1.65,3.21,3.21,0,0,1,.67-2,4.51,4.51,0,0,1,2-1.44,8.76,8.76,0,0,1,3.28-.54A14.65,14.65,0,0,1,120,8a7.51,7.51,0,0,1,2.19.73l-1.32,3.16a6.22,6.22,0,0,0-1.75-.67,7.84,7.84,0,0,0-1.6-.18,3.16,3.16,0,0,0-1.25.17c-.22.11-.33.24-.33.38s.12.3.37.38a4.31,4.31,0,0,0,1,.2c.4,0,.83.09,1.31.16a10.53,10.53,0,0,1,1.42.29,4.8,4.8,0,0,1,1.3.59,2.73,2.73,0,0,1,1,1,3.35,3.35,0,0,1,.36,1.64,3.22,3.22,0,0,1-.66,1.94,4.4,4.4,0,0,1-2,1.45A9,9,0,0,1,116.56,19.77Z"/><path class="cls-1" d="M123,12.08V8.58h8.77v3.5Zm6.67,7.69a5.54,5.54,0,0,1-3.74-1.16,4.44,4.44,0,0,1-1.33-3.55V5.33h4.79V15a1.15,1.15,0,0,0,.29.83.94.94,0,0,0,.71.3,1.88,1.88,0,0,0,1.08-.32l1.15,3.33a4.09,4.09,0,0,1-1.33.47A8.41,8.41,0,0,1,129.62,19.77Z"/><path class="cls-1" d="M133.78,19.56V7.94h4.57v3.51l-.75-1a3.92,3.92,0,0,1,1.7-2,5.5,5.5,0,0,1,2.8-.68V12l-.56-.07-.5,0a2.74,2.74,0,0,0-1.77.56,2.4,2.4,0,0,0-.69,2v5.16Z"/><path class="cls-1" d="M149.77,19.77a8.18,8.18,0,0,1-3.71-.79,6,6,0,0,1-2.45-2.15,5.63,5.63,0,0,1-.87-3.09,5.71,5.71,0,0,1,.86-3.12A5.77,5.77,0,0,1,146,8.5a7.26,7.26,0,0,1,3.36-.77,7.47,7.47,0,0,1,3.18.68,5.56,5.56,0,0,1,2.33,2,5.85,5.85,0,0,1,.88,3.31,5.53,5.53,0,0,1,0,.56c0,.21,0,.39,0,.56h-8.94V12.55h6.39l-1.8.62a2.43,2.43,0,0,0-.25-1.16,1.72,1.72,0,0,0-.67-.74,1.85,1.85,0,0,0-1-.27,1.93,1.93,0,0,0-1,.27,1.64,1.64,0,0,0-.66.74,2.55,2.55,0,0,0-.24,1.16v.72a2.54,2.54,0,0,0,.3,1.27,1.88,1.88,0,0,0,.85.8,3,3,0,0,0,1.34.26,3.54,3.54,0,0,0,1.32-.21,4.93,4.93,0,0,0,1.1-.64l2.5,2.53a5.44,5.44,0,0,1-2.09,1.39A8.27,8.27,0,0,1,149.77,19.77Z"/><path class="cls-1" d="M159.62,7a3,3,0,0,1-2.1-.7,2.23,2.23,0,0,1-.79-1.74,2.2,2.2,0,0,1,.79-1.74,3,3,0,0,1,2.1-.7,3.2,3.2,0,0,1,2.1.65,2.14,2.14,0,0,1,.79,1.7,2.37,2.37,0,0,1-.79,1.82A3,3,0,0,1,159.62,7Zm-2.4,12.55V7.94H162V19.56Z"/><path class="cls-1" d="M170.28,19.77a7.58,7.58,0,0,1-3.5-.78,5.92,5.92,0,0,1-2.38-2.13,5.6,5.6,0,0,1-.87-3.12,5.55,5.55,0,0,1,.87-3.12,5.83,5.83,0,0,1,2.38-2.12,8.34,8.34,0,0,1,7,0A5.66,5.66,0,0,1,177,13.74a5.76,5.76,0,0,1-.86,3.12A5.82,5.82,0,0,1,173.78,19,7.61,7.61,0,0,1,170.28,19.77Zm0-3.74a1.8,1.8,0,0,0,.95-.25,1.75,1.75,0,0,0,.68-.78,2.83,2.83,0,0,0,.26-1.26,2.74,2.74,0,0,0-.26-1.26,1.75,1.75,0,0,0-.68-.76,1.81,1.81,0,0,0-2.59.76,2.75,2.75,0,0,0-.25,1.26,2.83,2.83,0,0,0,.25,1.26,1.72,1.72,0,0,0,1.64,1Z"/><path class="cls-1" d="M34,27.18V22.31h.93l2.88,3.51h-.45V22.31h1.11v4.87H37.5l-2.89-3.51h.46v3.51Z"/><path class="cls-1" d="M38.94,27.18l2.17-4.87h1.11l2.18,4.87H43.22l-1.78-4.3h.44l-1.79,4.3Zm1.08-1,.3-.86h2.51l.31.86Z"/><path class="cls-1" d="M46.88,27.18V22.31H49a2.78,2.78,0,0,1,1.13.21,1.63,1.63,0,0,1,.73.61,1.7,1.7,0,0,1,.26.94,1.67,1.67,0,0,1-.26.94,1.63,1.63,0,0,1-.73.61,2.62,2.62,0,0,1-1.13.22H47.51l.5-.51v1.85ZM48,25.45l-.5-.53h1.42a1.15,1.15,0,0,0,.78-.23.76.76,0,0,0,.26-.62.79.79,0,0,0-.26-.62,1.15,1.15,0,0,0-.78-.23H47.51l.5-.53Z"/><path class="cls-1" d="M51,27.18l2.18-4.87h1.11l2.18,4.87H55.31l-1.79-4.3H54l-1.79,4.3Zm1.09-1,.3-.86h2.51l.3.86Z"/><path class="cls-1" d="M57,27.18V22.31h1.13v4h2.44v.92Z"/><path class="cls-1" d="M61.2,27.18V22.31h.94l2.07,3.44h-.49l2-3.44h.92l0,4.87H65.64V23.93h.2L64.2,26.66h-.51L62,23.93h.23v3.25Z"/><path class="cls-1" d="M67.21,27.18l2.18-4.87H70.5l2.18,4.87H71.5l-1.79-4.3h.45l-1.79,4.3Zm1.09-1,.3-.86h2.51l.3.86Z"/><path class="cls-1" d="M75.16,27.18V22.31h2.21a3.1,3.1,0,0,1,1.4.3,2.29,2.29,0,0,1,1,.84,2.39,2.39,0,0,1-1,3.43,3.1,3.1,0,0,1-1.4.3Zm1.13-.93h1a1.86,1.86,0,0,0,.84-.18,1.3,1.3,0,0,0,.56-.53,1.7,1.7,0,0,0,0-1.6,1.28,1.28,0,0,0-.56-.52,1.74,1.74,0,0,0-.84-.19h-1Z"/><path class="cls-1" d="M80.2,27.18l2.17-4.87h1.12l2.18,4.87H84.48l-1.78-4.3h.45l-1.8,4.3Zm1.09-1,.3-.86h2.5l.31.86Z"/><path class="cls-1" d="M88.14,27.18V22.31h.94l2.07,3.44h-.49l2-3.44h.92l0,4.87H92.58V23.93h.2l-1.63,2.73h-.51L89,23.93h.23v3.25Z"/><path class="cls-1" d="M94.15,27.18l2.17-4.87h1.12l2.18,4.87H98.44l-1.79-4.3h.45l-1.79,4.3Zm1.09-1,.3-.86h2.51l.3.86Zm2.16-4.21a.68.68,0,0,1-.32-.07,1.28,1.28,0,0,1-.25-.15,1.37,1.37,0,0,0-.21-.15.3.3,0,0,0-.19-.07.29.29,0,0,0-.23.1.44.44,0,0,0-.1.29h-.55a1.18,1.18,0,0,1,.22-.74.73.73,0,0,1,.59-.28.79.79,0,0,1,.32.07,1.07,1.07,0,0,1,.25.16l.22.15a.27.27,0,0,0,.18.07.3.3,0,0,0,.24-.1.47.47,0,0,0,.1-.28h.55a1.15,1.15,0,0,1-.23.72A.69.69,0,0,1,97.4,21.93Z"/><path class="cls-1" d="M102.42,27.26a3,3,0,0,1-1.06-.18,2.61,2.61,0,0,1-.85-.53,2.46,2.46,0,0,1-.56-.8,2.6,2.6,0,0,1-.2-1,2.55,2.55,0,0,1,.2-1,2.36,2.36,0,0,1,.56-.8,2.55,2.55,0,0,1,.85-.53,3.05,3.05,0,0,1,2.12,0,2.61,2.61,0,0,1,.84.53,2.43,2.43,0,0,1,.76,1.8,2.43,2.43,0,0,1-.2,1,2.36,2.36,0,0,1-.56.8,2.61,2.61,0,0,1-.84.53A3,3,0,0,1,102.42,27.26Zm0-1a1.46,1.46,0,0,0,.6-.11,1.39,1.39,0,0,0,.48-.32,1.51,1.51,0,0,0,.33-.49,1.87,1.87,0,0,0,.11-.64,1.81,1.81,0,0,0-.11-.63,1.71,1.71,0,0,0-.32-.5,1.66,1.66,0,0,0-.49-.32,1.64,1.64,0,0,0-.6-.11,1.47,1.47,0,0,0-1.09.43,1.38,1.38,0,0,0-.32.5,1.71,1.71,0,0,0,0,1.26,1.43,1.43,0,0,0,.8.82A1.54,1.54,0,0,0,102.42,26.3Z"/><path class="cls-2" d="M1.45,27.78a8.19,8.19,0,0,1-1.1-4.09c-.2-2.63-.28-5.79-.35-9,.1-3.32.14-6.67.35-9a7.24,7.24,0,0,1,1.1-3.78A6.8,6.8,0,0,1,5.69.29c2.5-.21,5.58-.21,9-.29,3.78.06,6.34,0,9,.29A7.14,7.14,0,0,1,28,1.8c.63.84.81,1.74,1,3.83.22,2.42.27,5.7.35,9-.12,3.28-.13,6.58-.35,9.05-.14,1.95-.37,3.26-1,4.09-.83.71-2.24,1.06-4.35,1.23a75.24,75.24,0,0,1-9,.4c-3.2,0-6.27-.1-9-.37-1.85-.15-3.37-.46-4.22-1.24Z"/><path class="cls-3" d="M27.41,2.1A7.85,7.85,0,0,1,28.47,6c.19,2.54.27,5.58.34,8.72-.09,3.2-.13,6.42-.34,8.71a7,7,0,0,1-1.07,3.65,6.55,6.55,0,0,1-4.09,1.45c-2.41.21-5.38.21-8.65.29-3.65-.07-6.12,0-8.71-.29a6.85,6.85,0,0,1-4.16-1.45c-.6-.81-.78-1.67-.95-3.69-.2-2.33-.25-5.48-.33-8.66.12-3.15.13-6.33.34-8.71a8.07,8.07,0,0,1,.93-3.94c.8-.68,2.16-1,4.19-1.18A74.36,74.36,0,0,1,14.65.54c3.09,0,6,.1,8.69.36,1.78.14,3.25.45,4.07,1.2Z"/><circle class="cls-4" cx="14.66" cy="14.69" r="11.21"/><polygon class="cls-5" points="13.61 14 14.66 22.71 21.63 18.7 21.63 10.69 13.61 14"/><polygon class="cls-6" points="20.83 16.64 20.83 18.24 18.27 19.71 18.27 18.11 19.56 16.88 20.83 16.64"/><polygon class="cls-7" points="20.83 15.83 20.83 16.64 18.27 18.11 18.27 17.31 20.83 15.83"/><polygon class="cls-8" points="14.66 13.65 14.66 22.71 7.69 18.7 7.69 10.69 14.66 13.65"/><polygon class="cls-9" points="14.66 6.68 13.46 10.73 14.66 14.7 18.93 13.5 21.63 10.69 14.66 6.68"/><polygon class="cls-10" points="7.69 10.69 10.37 13.89 14.66 14.7 14.66 6.68 7.69 10.69"/><polygon class="cls-11" points="7.69 10.69 6.29 13.89 13.26 17.9 14.66 14.7 7.69 10.69"/><polygon class="cls-7" points="21.63 10.69 23.03 13.89 16.06 17.9 14.66 14.7 21.63 10.69"/></g></g></svg>